<svg width="68" height="53" viewBox="0 0 68 53" fill="none" xmlns="http://www.w3.org/2000/svg">
<ellipse cx="34" cy="26.5" rx="34" ry="26.5" fill="#D9D9D9"/>
<path d="M16.4916 30.3004H20.8329V32H14.3855V19.1606H16.4916V30.3004ZM27.0094 32.1663C26.0488 32.1663 25.1805 31.9507 24.4046 31.5197C23.6287 31.0763 23.0191 30.4605 22.5757 29.6723C22.1323 28.8718 21.9106 27.9481 21.9106 26.9012C21.9106 25.8667 22.1385 24.9491 22.5942 24.1486C23.0499 23.3481 23.6718 22.7323 24.46 22.3012C25.2482 21.8701 26.1288 21.6546 27.1018 21.6546C28.0748 21.6546 28.9553 21.8701 29.7436 22.3012C30.5318 22.7323 31.1537 23.3481 31.6094 24.1486C32.0651 24.9491 32.293 25.8667 32.293 26.9012C32.293 27.9357 32.059 28.8533 31.591 29.6538C31.123 30.4543 30.4825 31.0763 29.6697 31.5197C28.8691 31.9507 27.9824 32.1663 27.0094 32.1663ZM27.0094 30.3373C27.5513 30.3373 28.0563 30.208 28.5243 29.9494C29.0046 29.6908 29.3926 29.3028 29.6881 28.7855C29.9837 28.2683 30.1315 27.6402 30.1315 26.9012C30.1315 26.1622 29.9899 25.5403 29.7066 25.0353C29.4234 24.5181 29.0477 24.1301 28.5797 23.8715C28.1117 23.6128 27.6067 23.4835 27.0648 23.4835C26.5229 23.4835 26.018 23.6128 25.55 23.8715C25.0943 24.1301 24.731 24.5181 24.46 25.0353C24.1891 25.5403 24.0536 26.1622 24.0536 26.9012C24.0536 27.9973 24.3307 28.8471 24.8849 29.4506C25.4515 30.0418 26.1596 30.3373 27.0094 30.3373ZM38.4761 21.6546C39.2643 21.6546 39.9602 21.8147 40.5636 22.1349C41.1794 22.4428 41.6598 22.8308 42.0046 23.2988V21.8209H44.1291V32.1663C44.1291 33.1023 43.9321 33.9336 43.5379 34.6602C43.1438 35.3992 42.5711 35.978 41.8199 36.3968C41.0809 36.8155 40.1942 37.0249 39.1596 37.0249C37.7802 37.0249 36.6349 36.6985 35.7235 36.0458C34.8121 35.4054 34.2948 34.5309 34.1717 33.4225H36.2592C36.4193 33.9521 36.758 34.377 37.2753 34.6972C37.8049 35.0297 38.433 35.196 39.1596 35.196C40.0094 35.196 40.693 34.9374 41.2102 34.4201C41.7398 33.9028 42.0046 33.1515 42.0046 32.1663V30.4667C41.6474 30.947 41.161 31.3534 40.5452 31.6859C39.9417 32.0062 39.252 32.1663 38.4761 32.1663C37.5893 32.1663 36.7765 31.9446 36.0375 31.5012C35.3109 31.0455 34.732 30.4174 34.301 29.6169C33.8822 28.804 33.6729 27.8865 33.6729 26.8643C33.6729 25.842 33.8822 24.9368 34.301 24.1486C34.732 23.3604 35.3109 22.7507 36.0375 22.3197C36.7765 21.8763 37.5893 21.6546 38.4761 21.6546ZM42.0046 26.9012C42.0046 26.1992 41.8568 25.5896 41.5612 25.0723C41.278 24.555 40.9023 24.1609 40.4343 23.89C39.9663 23.619 39.4614 23.4835 38.9195 23.4835C38.3776 23.4835 37.8726 23.619 37.4046 23.89C36.9366 24.1486 36.5548 24.5365 36.2592 25.0538C35.976 25.5588 35.8343 26.1622 35.8343 26.8643C35.8343 27.5663 35.976 28.1821 36.2592 28.7116C36.5548 29.2412 36.9366 29.6477 37.4046 29.9309C37.8849 30.2019 38.3899 30.3373 38.9195 30.3373C39.4614 30.3373 39.9663 30.2019 40.4343 29.9309C40.9023 29.66 41.278 29.2659 41.5612 28.7486C41.8568 28.219 42.0046 27.6032 42.0046 26.9012ZM51.3105 32.1663C50.3499 32.1663 49.4816 31.9507 48.7057 31.5197C47.9298 31.0763 47.3202 30.4605 46.8768 29.6723C46.4334 28.8718 46.2118 27.9481 46.2118 26.9012C46.2118 25.8667 46.4396 24.9491 46.8953 24.1486C47.351 23.3481 47.9729 22.7323 48.7612 22.3012C49.5494 21.8701 50.43 21.6546 51.4029 21.6546C52.3759 21.6546 53.2565 21.8701 54.0447 22.3012C54.8329 22.7323 55.4549 23.3481 55.9106 24.1486C56.3662 24.9491 56.5941 25.8667 56.5941 26.9012C56.5941 27.9357 56.3601 28.8533 55.8921 29.6538C55.4241 30.4543 54.7836 31.0763 53.9708 31.5197C53.1703 31.9507 52.2835 32.1663 51.3105 32.1663ZM51.3105 30.3373C51.8525 30.3373 52.3574 30.208 52.8254 29.9494C53.3057 29.6908 53.6937 29.3028 53.9893 28.7855C54.2848 28.2683 54.4326 27.6402 54.4326 26.9012C54.4326 26.1622 54.291 25.5403 54.0077 25.0353C53.7245 24.5181 53.3488 24.1301 52.8808 23.8715C52.4128 23.6128 51.9079 23.4835 51.366 23.4835C50.8241 23.4835 50.3191 23.6128 49.8511 23.8715C49.3954 24.1301 49.0321 24.5181 48.7612 25.0353C48.4902 25.5403 48.3547 26.1622 48.3547 26.9012C48.3547 27.9973 48.6318 28.8471 49.1861 29.4506C49.7526 30.0418 50.4607 30.3373 51.3105 30.3373Z" fill="#24306E"/>
</svg>
